<svg id="Meny" xmlns="http://www.w3.org/2000/svg" xmlns:xlink="http://www.w3.org/1999/xlink" width="43.5" height="32.127" viewBox="0 0 43.5 32.127">
  <defs>
    <clipPath id="clip-path">
      <rect id="Rectangle_10" data-name="Rectangle 10" width="43.5" height="32.127" fill="#b84f00"/>
    </clipPath>
  </defs>
  <g id="Group_20" data-name="Group 20" clip-path="url(#clip-path)">
    <path id="Path_10" data-name="Path 10" d="M2.494,42H41.006A2.824,2.824,0,0,1,43.5,45.065a2.824,2.824,0,0,1-2.494,3.065H2.494A2.824,2.824,0,0,1,0,45.065,2.824,2.824,0,0,1,2.494,42" transform="translate(0 -29.002)" fill="#b84f00"/>
    <path id="Path_11" data-name="Path 11" d="M2.494,84H41.006a3.13,3.13,0,0,1,0,6.13H2.494a3.13,3.13,0,0,1,0-6.13" transform="translate(0 -58.003)" fill="#b84f00"/>
    <path id="Path_12" data-name="Path 12" d="M2.494,0H41.006A2.824,2.824,0,0,1,43.5,3.065,2.824,2.824,0,0,1,41.006,6.13H2.494A2.824,2.824,0,0,1,0,3.065,2.824,2.824,0,0,1,2.494,0" transform="translate(0 0)" fill="#b84f00"/>
  </g>
</svg>
