<svg xmlns="http://www.w3.org/2000/svg" width="35.559" height="35.559" viewBox="0 0 35.559 35.559">
  <path id="Icon_awesome-twitter-square" data-name="Icon awesome-twitter-square" d="M31.749,2.25H3.81A3.811,3.811,0,0,0,0,6.06V34a3.811,3.811,0,0,0,3.81,3.81H31.749A3.811,3.811,0,0,0,35.559,34V6.06A3.811,3.811,0,0,0,31.749,2.25Zm-3.881,12.6c.016.222.016.452.016.675A14.71,14.71,0,0,1,13.073,30.34,14.743,14.743,0,0,1,5.08,28.007a10.967,10.967,0,0,0,1.254.063A10.437,10.437,0,0,0,12.8,25.848a5.213,5.213,0,0,1-4.866-3.611,5.611,5.611,0,0,0,2.349-.1,5.206,5.206,0,0,1-4.167-5.112v-.063a5.2,5.2,0,0,0,2.349.659,5.2,5.2,0,0,1-2.318-4.334,5.141,5.141,0,0,1,.706-2.627,14.781,14.781,0,0,0,10.731,5.445,5.217,5.217,0,0,1,8.882-4.754,10.2,10.2,0,0,0,3.3-1.254,5.192,5.192,0,0,1-2.286,2.865,10.36,10.36,0,0,0,3-.81A10.957,10.957,0,0,1,27.868,14.855Z" transform="translate(0 -2.25)" fill="#fff"/>
</svg>
