<svg xmlns="http://www.w3.org/2000/svg" width="35.559" height="35.559" viewBox="0 0 35.559 35.559">
  <path id="Icon_awesome-facebook-square" data-name="Icon awesome-facebook-square" d="M31.749,2.25H3.81A3.81,3.81,0,0,0,0,6.06V34a3.81,3.81,0,0,0,3.81,3.81H14.7V25.72h-5V20.03h5V15.693c0-4.933,2.937-7.658,7.435-7.658a30.294,30.294,0,0,1,4.407.384v4.842H24.064c-2.445,0-3.208,1.518-3.208,3.074V20.03h5.459l-.873,5.69H20.855V37.809H31.749A3.81,3.81,0,0,0,35.559,34V6.06a3.81,3.81,0,0,0-3.81-3.81Z" transform="translate(0 -2.25)" fill="#fff"/>
</svg>
