<svg xmlns="http://www.w3.org/2000/svg" width="35.559" height="35.551" viewBox="0 0 35.559 35.551">
  <path id="Icon_awesome-instagram" data-name="Icon awesome-instagram" d="M17.778,10.9a9.115,9.115,0,1,0,9.115,9.115A9.1,9.1,0,0,0,17.778,10.9Zm0,15.041A5.926,5.926,0,1,1,23.7,20.013a5.937,5.937,0,0,1-5.926,5.926ZM29.392,10.526A2.126,2.126,0,1,1,27.266,8.4,2.121,2.121,0,0,1,29.392,10.526Zm6.037,2.158c-.135-2.848-.785-5.371-2.872-7.449s-4.6-2.729-7.449-2.872c-2.935-.167-11.733-.167-14.668,0C7.6,2.5,5.078,3.148,2.991,5.226S.262,9.828.12,12.675c-.167,2.935-.167,11.733,0,14.668.135,2.848.785,5.371,2.872,7.449s4.6,2.729,7.449,2.872c2.935.167,11.733.167,14.668,0,2.848-.135,5.371-.785,7.449-2.872s2.729-4.6,2.872-7.449c.167-2.935.167-11.725,0-14.66ZM31.637,30.493a6,6,0,0,1-3.379,3.379c-2.34.928-7.893.714-10.479.714s-8.147.206-10.479-.714A6,6,0,0,1,3.92,30.493c-.928-2.34-.714-7.893-.714-10.479S3,11.866,3.92,9.534A6,6,0,0,1,7.3,6.155c2.34-.928,7.893-.714,10.479-.714s8.147-.206,10.479.714a6,6,0,0,1,3.379,3.379c.928,2.34.714,7.893.714,10.479S32.565,28.161,31.637,30.493Z" transform="translate(0.005 -2.238)" fill="#fff"/>
</svg>
